<?xml version="1.0" encoding="UTF-8" standalone="no"?>
<!DOCTYPE svg PUBLIC "-//W3C//DTD SVG 1.1//EN"
 "http://www.w3.org/Graphics/SVG/1.1/DTD/svg11.dtd">
<!-- Generated by graphviz version 2.49.3 (20211023.0002)
 -->
<!-- Title: G Pages: 1 -->
<svg width="302pt" height="116pt"
 viewBox="0.00 0.00 301.79 116.00" xmlns="http://www.w3.org/2000/svg" xmlns:xlink="http://www.w3.org/1999/xlink">
<g id="graph0" class="graph" transform="scale(1 1) rotate(0) translate(4 112)">
<title>G</title>
<polygon fill="white" stroke="transparent" points="-4,4 -4,-112 297.79,-112 297.79,4 -4,4"/>
<!-- Root -->
<g id="node1" class="node">
<title>Root</title>
<ellipse fill="none" stroke="black" cx="144.29" cy="-90" rx="28.7" ry="18"/>
<text text-anchor="middle" x="144.29" y="-86.3" font-family="Times,serif" font-size="14.00">Root</text>
</g>
<!-- Left child node -->
<g id="node2" class="node">
<title>Left child node</title>
<ellipse fill="none" stroke="black" cx="66.29" cy="-18" rx="66.09" ry="18"/>
<text text-anchor="middle" x="66.29" y="-14.3" font-family="Times,serif" font-size="14.00">Left child node</text>
</g>
<!-- Root&#45;&gt;Left child node -->
<g id="edge1" class="edge">
<title>Root&#45;&gt;Left child node</title>
<path fill="none" stroke="black" d="M128.51,-74.83C118.07,-65.46 104.13,-52.96 92.1,-42.15"/>
<polygon fill="black" stroke="black" points="94.3,-39.43 84.52,-35.35 89.62,-44.64 94.3,-39.43"/>
</g>
<!-- Right child node -->
<g id="node3" class="node">
<title>Right child node</title>
<ellipse fill="none" stroke="black" cx="222.29" cy="-18" rx="71.49" ry="18"/>
<text text-anchor="middle" x="222.29" y="-14.3" font-family="Times,serif" font-size="14.00">Right child node</text>
</g>
<!-- Root&#45;&gt;Right child node -->
<g id="edge2" class="edge">
<title>Root&#45;&gt;Right child node</title>
<path fill="none" stroke="black" d="M160.08,-74.83C170.45,-65.53 184.26,-53.13 196.24,-42.38"/>
<polygon fill="black" stroke="black" points="198.69,-44.89 203.79,-35.61 194.01,-39.68 198.69,-44.89"/>
</g>
</g>
</svg>
