<?xml version="1.0" encoding="UTF-8" standalone="no"?>
<!DOCTYPE svg PUBLIC "-//W3C//DTD SVG 1.1//EN"
 "http://www.w3.org/Graphics/SVG/1.1/DTD/svg11.dtd">
<!-- Generated by graphviz version 2.49.3 (20211023.0002)
 -->
<!-- Title: G Pages: 1 -->
<svg width="206pt" height="194pt"
 viewBox="0.00 0.00 206.00 193.60" xmlns="http://www.w3.org/2000/svg" xmlns:xlink="http://www.w3.org/1999/xlink">
<g id="graph0" class="graph" transform="scale(1 1) rotate(0) translate(4 189.6)">
<title>G</title>
<polygon fill="white" stroke="transparent" points="-4,4 -4,-189.6 202,-189.6 202,4 -4,4"/>
<!-- 10 -->
<g id="node1" class="node">
<title>10</title>
<ellipse fill="none" stroke="black" cx="99" cy="-164.8" rx="20.6" ry="20.6"/>
<text text-anchor="middle" x="99" y="-161.1" font-family="Helvetica,sans-Serif" font-size="14.00">10</text>
</g>
<!-- 5 -->
<g id="node2" class="node">
<title>5</title>
<ellipse fill="none" stroke="black" cx="72" cy="-90" rx="18" ry="18"/>
<text text-anchor="middle" x="72" y="-86.3" font-family="Helvetica,sans-Serif" font-size="14.00">5</text>
</g>
<!-- 10&#45;&#45;5 -->
<g id="edge1" class="edge">
<title>10&#45;&#45;5</title>
<path fill="none" stroke="black" d="M92.05,-145.05C87.73,-133.42 82.25,-118.63 78.1,-107.45"/>
</g>
<!-- 7 -->
<g id="node5" class="node">
<title>7</title>
<ellipse fill="none" stroke="black" cx="126" cy="-90" rx="18" ry="18"/>
<text text-anchor="middle" x="126" y="-86.3" font-family="Helvetica,sans-Serif" font-size="14.00">7</text>
</g>
<!-- 10&#45;&#45;7 -->
<g id="edge4" class="edge">
<title>10&#45;&#45;7</title>
<path fill="none" stroke="black" d="M105.95,-145.05C110.27,-133.42 115.75,-118.63 119.9,-107.45"/>
</g>
<!-- 3 -->
<g id="node3" class="node">
<title>3</title>
<ellipse fill="none" stroke="black" cx="18" cy="-18" rx="18" ry="18"/>
<text text-anchor="middle" x="18" y="-14.3" font-family="Helvetica,sans-Serif" font-size="14.00">3</text>
</g>
<!-- 5&#45;&#45;3 -->
<g id="edge2" class="edge">
<title>5&#45;&#45;3</title>
<path fill="none" stroke="black" d="M61.33,-75.17C51.86,-62.9 38.11,-45.06 28.65,-32.8"/>
</g>
<!-- 4 -->
<g id="node4" class="node">
<title>4</title>
<ellipse fill="none" stroke="black" cx="72" cy="-18" rx="18" ry="18"/>
<text text-anchor="middle" x="72" y="-14.3" font-family="Helvetica,sans-Serif" font-size="14.00">4</text>
</g>
<!-- 5&#45;&#45;4 -->
<g id="edge3" class="edge">
<title>5&#45;&#45;4</title>
<path fill="none" stroke="black" d="M72,-71.7C72,-60.85 72,-46.92 72,-36.1"/>
</g>
<!-- 6 -->
<g id="node6" class="node">
<title>6</title>
<ellipse fill="none" stroke="black" cx="126" cy="-18" rx="18" ry="18"/>
<text text-anchor="middle" x="126" y="-14.3" font-family="Helvetica,sans-Serif" font-size="14.00">6</text>
</g>
<!-- 7&#45;&#45;6 -->
<g id="edge5" class="edge">
<title>7&#45;&#45;6</title>
<path fill="none" stroke="black" d="M126,-71.7C126,-60.85 126,-46.92 126,-36.1"/>
</g>
<!-- 9 -->
<g id="node7" class="node">
<title>9</title>
<ellipse fill="none" stroke="black" cx="180" cy="-18" rx="18" ry="18"/>
<text text-anchor="middle" x="180" y="-14.3" font-family="Helvetica,sans-Serif" font-size="14.00">9</text>
</g>
<!-- 7&#45;&#45;9 -->
<g id="edge6" class="edge">
<title>7&#45;&#45;9</title>
<path fill="none" stroke="black" d="M136.67,-75.17C146.14,-62.9 159.89,-45.06 169.35,-32.8"/>
</g>
</g>
</svg>
