<?xml version="1.0" encoding="UTF-8" standalone="no"?>
<!DOCTYPE svg PUBLIC "-//W3C//DTD SVG 1.1//EN"
 "http://www.w3.org/Graphics/SVG/1.1/DTD/svg11.dtd">
<!-- Generated by graphviz version 2.49.3 (20211023.0002)
 -->
<!-- Title: G Pages: 1 -->
<svg width="218pt" height="205pt"
 viewBox="0.00 0.00 217.80 204.79" xmlns="http://www.w3.org/2000/svg" xmlns:xlink="http://www.w3.org/1999/xlink">
<g id="graph0" class="graph" transform="scale(1 1) rotate(0) translate(4 200.79)">
<title>G</title>
<polygon fill="white" stroke="transparent" points="-4,4 -4,-200.79 213.8,-200.79 213.8,4 -4,4"/>
<!-- 10 -->
<g id="node1" class="node">
<title>10</title>
<ellipse fill="none" stroke="black" cx="100" cy="-175.99" rx="20.6" ry="20.6"/>
<text text-anchor="middle" x="100" y="-172.29" font-family="Helvetica,sans-Serif" font-size="14.00">10</text>
</g>
<!-- 5 -->
<g id="node2" class="node">
<title>5</title>
<ellipse fill="none" stroke="black" cx="72" cy="-98.39" rx="18" ry="18"/>
<text text-anchor="middle" x="72" y="-94.69" font-family="Helvetica,sans-Serif" font-size="14.00">5</text>
</g>
<!-- 10&#45;&#45;5 -->
<g id="edge1" class="edge">
<title>10&#45;&#45;5</title>
<path fill="none" stroke="black" d="M93.08,-156.3C88.45,-143.8 82.41,-127.51 77.99,-115.56"/>
</g>
<!-- 17 -->
<g id="node5" class="node">
<title>17</title>
<ellipse fill="none" stroke="black" cx="129" cy="-98.39" rx="20.6" ry="20.6"/>
<text text-anchor="middle" x="129" y="-94.69" font-family="Helvetica,sans-Serif" font-size="14.00">17</text>
</g>
<!-- 10&#45;&#45;17 -->
<g id="edge4" class="edge">
<title>10&#45;&#45;17</title>
<path fill="none" stroke="black" d="M107.17,-156.3C111.63,-144.67 117.35,-129.77 121.81,-118.13"/>
</g>
<!-- 3 -->
<g id="node3" class="node">
<title>3</title>
<ellipse fill="none" stroke="black" cx="18" cy="-20.8" rx="18" ry="18"/>
<text text-anchor="middle" x="18" y="-17.1" font-family="Helvetica,sans-Serif" font-size="14.00">3</text>
</g>
<!-- 5&#45;&#45;3 -->
<g id="edge2" class="edge">
<title>5&#45;&#45;3</title>
<path fill="none" stroke="black" d="M61.84,-83.18C52.19,-69.66 37.75,-49.45 28.11,-35.95"/>
</g>
<!-- 4 -->
<g id="node4" class="node">
<title>4</title>
<ellipse fill="none" stroke="black" cx="72" cy="-20.8" rx="18" ry="18"/>
<text text-anchor="middle" x="72" y="-17.1" font-family="Helvetica,sans-Serif" font-size="14.00">4</text>
</g>
<!-- 5&#45;&#45;4 -->
<g id="edge3" class="edge">
<title>5&#45;&#45;4</title>
<path fill="none" stroke="black" d="M72,-80.24C72,-67.87 72,-51.24 72,-38.88"/>
</g>
<!-- 16 -->
<g id="node6" class="node">
<title>16</title>
<ellipse fill="none" stroke="black" cx="129" cy="-20.8" rx="20.6" ry="20.6"/>
<text text-anchor="middle" x="129" y="-17.1" font-family="Helvetica,sans-Serif" font-size="14.00">16</text>
</g>
<!-- 17&#45;&#45;16 -->
<g id="edge5" class="edge">
<title>17&#45;&#45;16</title>
<path fill="none" stroke="black" d="M129,-77.53C129,-66.51 129,-52.83 129,-41.79"/>
</g>
<!-- 19 -->
<g id="node7" class="node">
<title>19</title>
<ellipse fill="none" stroke="black" cx="189" cy="-20.8" rx="20.6" ry="20.6"/>
<text text-anchor="middle" x="189" y="-17.1" font-family="Helvetica,sans-Serif" font-size="14.00">19</text>
</g>
<!-- 17&#45;&#45;19 -->
<g id="edge6" class="edge">
<title>17&#45;&#45;19</title>
<path fill="none" stroke="black" d="M141.72,-81.36C151.98,-68.45 166.31,-50.39 176.5,-37.55"/>
</g>
</g>
</svg>
